<?xml version="1.0" encoding="iso-8859-1"?>
<!-- Generator: Adobe Illustrator 16.0.0, SVG Export Plug-In . SVG Version: 6.00 Build 0)  -->
<!DOCTYPE svg PUBLIC "-//W3C//DTD SVG 1.1//EN" "http://www.w3.org/Graphics/SVG/1.1/DTD/svg11.dtd">
<svg version="1.1" id="Capa_1" xmlns="http://www.w3.org/2000/svg" xmlns:xlink="http://www.w3.org/1999/xlink" x="0px" y="0px"
	 width="612px" height="612px" viewBox="0 0 612 612" style="enable-background:new 0 0 612 612;" xml:space="preserve">
<g>
	<g>
		<g id="Bell">
			<g>
				<path d="M573.75,382.5H535.5v-153C535.5,102.759,432.741,0,306,0S76.5,102.759,76.5,229.5v153H38.25
					C17.117,382.5,0,399.617,0,420.75S17.117,459,38.25,459h535.5c21.133,0,38.25-17.117,38.25-38.25S594.883,382.5,573.75,382.5z
					 M459,382.5H153v-153c0-84.36,68.64-153,153-153c84.36,0,153,68.64,153,153V382.5z M229.5,535.5c0,42.247,34.253,76.5,76.5,76.5
					s76.5-34.253,76.5-76.5v-38.25h-153V535.5z"/>
			</g>
		</g>
	</g>
</g>
<g>
</g>
<g>
</g>
<g>
</g>
<g>
</g>
<g>
</g>
<g>
</g>
<g>
</g>
<g>
</g>
<g>
</g>
<g>
</g>
<g>
</g>
<g>
</g>
<g>
</g>
<g>
</g>
<g>
</g>
</svg>
